<?xml version="1.0" encoding="UTF-8"?>
<svg id="Layer_1" data-name="Layer 1" xmlns="http://www.w3.org/2000/svg" width="24" height="24" viewBox="0 0 24 24">
  <defs>
    <style>
      .cls-1 {
        fill: #106cb2;
      }

      .cls-2 {
        fill: #eeecef;
      }

      .cls-3 {
        fill: #5d5360;
      }

      .cls-4 {
        fill: #0b69b1;
      }

      .cls-5 {
        fill: #fefeff;
      }

      .cls-6 {
        fill: #dfdde0;
      }

      .cls-7 {
        fill: #fbfbfc;
      }

      .cls-8 {
        fill: #c40b5e;
      }

      .cls-9 {
        fill: #c8c5c9;
      }

      .cls-10 {
        fill: #fbfafb;
      }

      .cls-11 {
        fill: #ed0f68;
      }

      .cls-12 {
        fill: #847e88;
      }

      .cls-13 {
        fill: #c20a5d;
      }

      .cls-14 {
        fill: #0b68b0;
      }

      .cls-15 {
        fill: #0a69b0;
      }

      .cls-16 {
        fill: #fbfbfb;
      }

      .cls-17 {
        fill: #fcfcfc;
      }

      .cls-18 {
        fill: #0a68b0;
      }
    </style>
  </defs>
  <path class="cls-13" d="M15.38,2.8c.49.28.98.55,1.46.85.58.37,1.06.86,1.52,1.38.51.59.93,1.24,1.25,1.94.34.73.61,1.5.7,2.3.07.61.14,1.23.12,1.85-.03,1.05-.26,2.07-.67,3.04-.46,1.11-1.14,2.07-1.88,3-.33.42-.7.81-1.06,1.2-.44.47-.89.93-1.34,1.39-.61.61-1.21,1.23-1.83,1.83-.46.44-.94.87-1.4,1.31-.15.01-.3.01-.48.01-.13-.12-.24-.24-.36-.35-.08-.09-.17-.17-.25-.28.02-.06.04-.1.07-.13.35-.33.71-.65,1.06-.99,1.25-1.24,2.52-2.46,3.64-3.81.9-1.08,1.71-2.21,2.18-3.55.52-1.44.67-2.92.43-4.44-.17-1.06-.5-2.07-1.06-2.99-.29-.49-.67-.93-1.01-1.41,0-.39,0-.75,0-1.12,0-.22-.09-.3-.31-.31-.26,0-.52,0-.78-.03,0-.25,0-.47,0-.7Z"/>
  <path class="cls-9" d="M15.38,2.78c0,.25,0,.47-.02.72-.12.02-.22.03-.35.03-.33,0-.64,0-.96-.03,0-.66,0-1.3,0-1.93,0-.16-.05-.32-.08-.47.44,0,.88,0,1.34,0,.03.36.05.73.06,1.09,0,.19,0,.38,0,.59Z"/>
  <path class="cls-6" d="M13.95,1.1c.05.16.1.32.1.47,0,.64,0,1.28-.02,1.94-.33.02-.65.02-.96,0,0-.3,0-.59,0-.89-.01-.18-.03-.34-.04-.5,0-.22,0-.44.01-.65.01-.12.07-.23.09-.35.26-.01.53-.01.82-.01Z"/>
  <path class="cls-11" d="M13.06,2.64c0,.28,0,.57-.01.87-.27.03-.51.02-.76.03-.24,0-.31.07-.31.32,0,.27,0,.55-.03.82-2.54.12-4.37,1.33-5.37,3.62-1.03,2.35-.67,4.58.96,6.6.87,1.01,1.95,1.65,3.25,1.95.42.05.83.09,1.25.13,1.37-.03,2.58-.46,3.63-1.3.29-.24.54-.53.82-.81,1.3-1.56,1.74-3.34,1.36-5.31-.2-1.06-.66-2-1.38-2.82,0-.6,0-1.18,0-1.77.34.46.71.9,1,1.39.56.92.89,1.93,1.06,2.99.24,1.52.09,2.99-.43,4.44-.48,1.34-1.29,2.47-2.18,3.55-1.13,1.35-2.4,2.57-3.64,3.81-.34.34-.7.66-1.06.99-.03.03-.05.07-.07.12-.06-.02-.13-.05-.17-.1-.33-.32-.65-.65-.98-.98-.24-.23-.49-.45-.72-.68-.42-.43-.85-.85-1.25-1.3-.71-.79-1.42-1.59-2.1-2.41-.59-.71-1.14-1.46-1.53-2.3-.33-.71-.55-1.45-.69-2.21-.12-.65-.16-1.31-.12-1.97.06-1.05.29-2.07.71-3.05.32-.74.73-1.42,1.22-2.05.46-.57.99-1.08,1.58-1.51.79-.58,1.65-1.01,2.6-1.28.54-.15,1.07-.29,1.66-.27.14.06.25.12.37.15.44.12.89.23,1.34.35Z"/>
  <path class="cls-8" d="M13.06,2.62c-.45-.1-.89-.21-1.34-.33-.12-.03-.23-.09-.35-.15.07-.03.14-.06.21-.05.47,0,.94.03,1.42.04.03.16.05.32.06.5Z"/>
  <path class="cls-2" d="M16.48,14.88c-.27.27-.52.56-.81.8-1.05.84-2.26,1.27-3.63,1.28-.02-.08-.01-.13,0-.19.11-.01.2-.02.29-.05.87-.26,1.63-.7,2.31-1.3.46-.4.62-.96.42-1.45.18-.22.18-.3.02-.55.01-.66.02-1.31.02-1.95,0-.03-.02-.05-.03-.09.16-.23.16-.31,0-.55.02-.08.04-.14.04-.2,0-.62,0-1.23,0-1.86.12-.17.09-.32,0-.49,0-.64,0-1.25,0-1.86,0-.06-.03-.12-.03-.19.16-.23.16-.31,0-.55.02-.1.04-.18.04-.26,0-.49,0-.99,0-1.48,0-.14-.06-.27-.08-.41.1,0,.21,0,.33-.01.28,0,.54,0,.8,0,.22,0,.31.08.31.31,0,.37,0,.73,0,1.12,0,.6,0,1.18,0,1.81,0,2.7,0,5.36,0,8.01,0,.04,0,.07.01.11Z"/>
  <path class="cls-5" d="M15.08,11.4s.03.05.03.08c0,.65,0,1.29-.04,1.95-.09,0-.16-.04-.23-.04-.42,0-.83,0-1.25,0-.23,0-.36.14-.35.34,0,.19.14.32.37.32.34,0,.68,0,1.02,0,.15,0,.29-.03.44-.05.2.47.04,1.03-.41,1.43-.68.59-1.45,1.04-2.31,1.3-.09.03-.18.03-.29.03-.03-1.89-.03-3.75-.04-5.62,0-.33,0-.66,0-1.02,0-1.77,0-3.52-.02-5.26,0-.06,0-.11-.01-.17,0-.27,0-.55,0-.82,0-.25.07-.31.31-.32.25,0,.49,0,.76,0,.33,0,.65,0,.98,0,.33,0,.64,0,.98,0,.05.14.1.27.1.41.01.49,0,.99,0,1.48,0,.08-.02.17-.06.26-.1,0-.18-.03-.25-.03-.39,0-.78,0-1.17,0-.25,0-.39.12-.39.32,0,.21.14.34.4.34.39,0,.78,0,1.17,0,.09,0,.18-.04.27-.06.01.06.04.12.04.18,0,.61,0,1.23-.02,1.86-.1-.01-.19-.06-.28-.06-.4,0-.81,0-1.21,0-.24,0-.38.14-.37.34,0,.2.15.32.39.32.38,0,.76,0,1.14,0,.11,0,.23-.06.34-.09,0,.62,0,1.23,0,1.85,0,.06-.02.12-.06.2-.1,0-.18-.03-.25-.03-.39,0-.78,0-1.17,0-.25,0-.39.12-.39.32,0,.21.14.33.4.34.38,0,.77,0,1.15,0,.1,0,.19-.04.29-.06Z"/>
  <path class="cls-14" d="M11.95,4.68c.02.06.03.11.03.17,0,1.75.01,3.5,0,5.26-.42,0-.82,0-1.22-.04,0-.98,0-1.95,0-2.91,0-.11,0-.22-.03-.32-.06-.21-.31-.31-.47-.17-.09.08-.16.24-.16.36-.01.89,0,1.79,0,2.68,0,.45.07.4-.41.4-.28,0-.28,0-.28-.28,0-.47,0-.95,0-1.42,0-.27-.18-.42-.4-.37-.2.04-.26.19-.26.38,0,.5,0,1.01,0,1.51,0,.14-.05.19-.19.19-.2,0-.4,0-.6,0-.35,0-.38.03-.38.39,0,1.35,0,2.71,0,4.06,0,.1-.02.21-.04.31-1.62-2.01-1.98-4.24-.96-6.59,1-2.29,2.84-3.5,5.37-3.62Z"/>
  <path class="cls-12" d="M7.54,14.9c0-.12.03-.22.03-.32,0-1.35,0-2.71,0-4.06,0-.36.03-.39.38-.39.2,0,.4,0,.6,0,.14,0,.19-.05.19-.19,0-.5,0-1.01,0-1.51,0-.19.06-.34.26-.38.23-.05.4.1.4.37,0,.47,0,.95,0,1.42,0,.28,0,.28.28.28.48,0,.41.05.41-.4,0-.89,0-1.79,0-2.68,0-.12.07-.28.16-.36.16-.14.41-.04.47.17.03.1.03.21.03.32,0,.96,0,1.93,0,2.92,0,.12.02.21.02.3,0,.41,0,.83-.02,1.23-.12-.14-.25-.18-.41-.12-.16.06-.21.2-.21.36,0,.17,0,.34,0,.51,0,.17.03.33.2.41.17.08.3,0,.42-.09,0,.45,0,.89,0,1.31-.12-.14-.26-.17-.41-.11-.16.06-.2.2-.2.36,0,.17,0,.34,0,.51,0,.17.03.33.21.41.17.07.3,0,.42-.09,0,.6,0,1.18,0,1.77-1.29-.29-2.36-.94-3.24-1.94M8.73,12.64c.09.13.22.21.36.15.1-.05.23-.16.24-.26.03-.26.02-.54,0-.8-.01-.17-.15-.26-.31-.26-.18,0-.31.1-.32.27-.01.29.01.58.04.9M8.68,14.45c0,.15,0,.3,0,.45.02.18.13.29.31.3.18,0,.32-.08.33-.26.02-.27.02-.54,0-.81-.01-.18-.15-.27-.33-.26-.18,0-.29.11-.31.29-.01.08,0,.17,0,.3Z"/>
  <path class="cls-18" d="M16.49,14.87s-.02-.06-.02-.1c0-2.66,0-5.32,0-8,.72.79,1.18,1.73,1.38,2.78.37,1.97-.06,3.75-1.36,5.31Z"/>
  <path class="cls-3" d="M10.77,11.62c0-.41,0-.83,0-1.24,0-.09-.02-.18-.02-.28.41,0,.81.01,1.23.03.02.34.03.67.03,1,0,1.87.01,3.74.02,5.62,0,.08,0,.13,0,.21-.4-.02-.81-.07-1.23-.11-.02-.59-.02-1.17-.02-1.79,0-.37,0-.71,0-1.05,0-.43,0-.87,0-1.34,0-.37,0-.71,0-1.05Z"/>
  <path class="cls-1" d="M15.12,8.78c-.12.05-.23.1-.34.1-.38.01-.76,0-1.14,0-.24,0-.39-.12-.39-.32,0-.2.13-.34.37-.34.4,0,.81,0,1.21,0,.09,0,.17.05.27.08.12.15.15.3.03.47Z"/>
  <path class="cls-1" d="M15.07,13.98c-.15.03-.3.06-.44.06-.34,0-.68,0-1.02,0-.23,0-.36-.13-.37-.32,0-.2.13-.33.35-.34.42,0,.83,0,1.25,0,.07,0,.13.03.22.06.18.24.18.31,0,.54Z"/>
  <path class="cls-4" d="M15.08,11.39c-.1.03-.2.07-.29.07-.38,0-.77,0-1.15,0-.26,0-.4-.12-.4-.34,0-.2.15-.32.39-.32.39,0,.78,0,1.17,0,.08,0,.15.03.24.04.19.23.2.31.04.54Z"/>
  <path class="cls-15" d="M15.08,6.24c-.1.03-.18.07-.27.07-.39,0-.78,0-1.17,0-.26,0-.4-.13-.4-.34,0-.2.14-.32.39-.32.39,0,.78,0,1.17,0,.08,0,.15.03.24.04.19.23.2.31.03.54Z"/>
  <path class="cls-10" d="M10.76,11.61c.01.35.01.68,0,1.04-.13.13-.26.21-.43.13-.18-.08-.21-.24-.2-.41,0-.17,0-.34,0-.51,0-.16.05-.3.21-.36.16-.06.29-.02.41.12Z"/>
  <path class="cls-7" d="M8.72,12.63c-.02-.3-.04-.59-.03-.88,0-.18.14-.27.32-.27.17,0,.3.09.31.26.02.27.03.54,0,.8-.01.1-.14.21-.24.26-.14.06-.27-.02-.37-.16Z"/>
  <path class="cls-16" d="M10.75,14c.01.35.02.68.01,1.04-.12.13-.25.21-.42.13-.18-.08-.21-.23-.21-.41,0-.17,0-.34,0-.51,0-.16.05-.3.2-.36.15-.06.29-.03.41.11Z"/>
  <path class="cls-17" d="M8.68,14.43c0-.11,0-.19,0-.28.03-.18.13-.28.31-.29.18,0,.32.08.33.26.02.27.02.54,0,.81-.01.18-.15.27-.33.26-.18,0-.29-.12-.31-.3-.01-.15,0-.3,0-.47Z"/>
</svg>